<svg xmlns="http://www.w3.org/2000/svg" width="96" height="96" viewBox="0 0 96 96">
    <g fill="none" fill-rule="evenodd">
        <path d="M0 0h64v64H0z"/>
        <path fill="#B6D9D6" d="M51 28.75C51 42.418 39.92 53.5 26.25 53.5S1.5 42.418 1.5 28.75 12.58 4 26.25 4 51 15.082 51 28.75"/>
        <path fill="#6AA1AD" d="M47.5 88h6v-9h-6zM76 88h6v-9h-6zM39 69.5h51v-12H39z"/>
        <path stroke="#4D5152" stroke-linejoin="round" stroke-width="2" d="M0 89h96M81.5 88v-9M76.5 88v-9M52.5 88v-9M48 88v-9M36 79h57M36 68.5h57M36 62.5h57M36 58h57M49.5 78V58M78 78V58M25.5 88V22M25.5 32.5L33 25"/>
        <path fill="#E7221A" d="M15 40a1.5 1.5 0 1 1-3 0 1.5 1.5 0 0 1 3 0M21 86.5a1.5 1.5 0 1 1-3 0 1.5 1.5 0 0 1 3 0M40.5 32.5a1.5 1.5 0 1 1-3 0 1.5 1.5 0 0 1 3 0M16.5 19a1.5 1.5 0 1 1-3 0 1.5 1.5 0 0 1 3 0"/>
        <path stroke="#4D5152" stroke-linejoin="round" stroke-width="2" d="M25.5 41.5L18 34"/>
    </g>
</svg>
