<svg xmlns="http://www.w3.org/2000/svg" width="96" height="96" viewBox="0 0 96 96">
    <g fill="none" fill-rule="evenodd">
        <path fill="#FFF" d="M76.806 66.645C86.854 66.645 95 58.5 95 48.452c0-9.017-6.065-16.678-15.161-16.678 0-7.58-4.549-13.645-13.645-13.645h-1.517C60.541 10.664 52.591 6 43.452 6 30.055 6 19.194 16.862 19.194 30.258 9.146 30.258 1 38.404 1 48.452c0 10.047 8.146 18.193 18.194 18.193h57.612z"/>
        <path stroke="#4D5152" stroke-width="2" d="M54.065 54.516L48 48.452l-6.065 6.064"/>
        <path stroke="#4D5152" stroke-width="2" d="M48 77.258c0-5.861 4.752-10.613 10.613-10.613h18.193C86.854 66.645 95 58.5 95 48.452c0-9.017-6.065-16.678-15.161-16.678 0-7.58-4.549-13.645-13.645-13.645h-1.517C60.541 10.664 52.591 6 43.452 6 30.055 6 19.194 16.862 19.194 30.258 9.146 30.258 1 38.404 1 48.452c0 10.047 8.146 18.193 18.194 18.193h18.193C43.248 66.645 48 61.894 48 56.032v-7.58M28.29 31.774c0-9.21 7.581-16.677 15.162-16.677"/>
    </g>
</svg>
